<svg width="122" height="24" viewBox="0 0 122 24" fill="none" xmlns="http://www.w3.org/2000/svg">
<g clip-path="url(#clip0_2070_1368)">
<path d="M12.1037 17.5198L16.2896 20.0298C17.0562 20.4898 17.9943 19.8098 17.7925 18.9498L16.683 14.2298L20.3848 11.0498C21.0606 10.4698 20.6975 9.36977 19.8098 9.29977L14.938 8.88977L13.0317 4.42977C12.6887 3.61977 11.5187 3.61977 11.1757 4.42977L9.26937 8.87977L4.39755 9.28977C3.50993 9.35977 3.14682 10.4598 3.82262 11.0398L7.52439 14.2198L6.41487 18.9398C6.21314 19.7998 7.15119 20.4798 7.91777 20.0198L12.1037 17.5198Z" fill="#FFBB00"/>
<path d="M84.7287 17.5198L88.9146 20.0298C89.6812 20.4898 90.6193 19.8098 90.4175 18.9498L89.308 14.2298L93.0098 11.0498C93.6856 10.4698 93.3225 9.36977 92.4348 9.29977L87.563 8.88977L85.6567 4.42977C85.3137 3.61977 84.1437 3.61977 83.8007 4.42977L81.8944 8.87977L77.0226 9.28977C76.1349 9.35977 75.7718 10.4598 76.4476 11.0398L80.1494 14.2198L79.0399 18.9398C78.8381 19.7998 79.7762 20.4798 80.5428 20.0198L84.7287 17.5198Z" fill="#FFBB00"/>
<path d="M60.5178 17.5198L64.7037 20.0298C65.4703 20.4898 66.4083 19.8098 66.2066 18.9498L65.0971 14.2298L68.7988 11.0498C69.4746 10.4698 69.1115 9.36977 68.2239 9.29977L63.3521 8.88977L61.4457 4.42977C61.1028 3.61977 59.9327 3.61977 59.5898 4.42977L57.6834 8.87977L52.8116 9.28977C51.924 9.35977 51.5609 10.4598 52.2367 11.0398L55.9385 14.2198L54.8289 18.9398C54.6272 19.7998 55.5653 20.4798 56.3318 20.0198L60.5178 17.5198Z" fill="#FFBB00"/>
<path d="M36.3107 17.5198L40.4967 20.0298C41.2632 20.4898 42.2013 19.8098 41.9996 18.9498L40.89 14.2298L44.5918 11.0498C45.2676 10.4698 44.9045 9.36977 44.0169 9.29977L39.1451 8.88977L37.2387 4.42977C36.8958 3.61977 35.7257 3.61977 35.3828 4.42977L33.4764 8.87977L28.6046 9.28977C27.717 9.35977 27.3538 10.4598 28.0296 11.0398L31.7314 14.2198L30.6219 18.9398C30.4202 19.7998 31.3582 20.4798 32.1248 20.0198L36.3107 17.5198Z" fill="#FFBB00"/>
<path d="M108.936 17.5198L113.122 20.0298C113.888 20.4898 114.826 19.8098 114.625 18.9498L113.515 14.2298L117.217 11.0498C117.893 10.4698 117.529 9.36977 116.642 9.29977L111.77 8.88977L109.864 4.42977C109.521 3.61977 108.351 3.61977 108.008 4.42977L106.101 8.87977L101.23 9.28977C100.342 9.35977 99.9788 10.4598 100.655 11.0398L104.356 14.2198L103.247 18.9398C103.045 19.7998 103.983 20.4798 104.75 20.0198L108.936 17.5198Z" fill="#FFBB00"/>
</g>
<defs>
<clipPath id="clip0_2070_1368">
<rect width="121.039" height="24" rx="8" fill="white"/>
</clipPath>
</defs>
</svg>
