<svg width="19" height="19" viewBox="0 0 19 19" fill="none" xmlns="http://www.w3.org/2000/svg">
<g id="04-facebook">
<path id="Vector" d="M17.1613 0H1.83871C0.823218 0 0 0.823218 0 1.83871V17.1613C0 18.1768 0.823218 19 1.83871 19H17.1613C18.1768 19 19 18.1768 19 17.1613V1.83871C19 0.823218 18.1768 0 17.1613 0Z" fill="#5B79B8"/>
<path id="Vector_2" d="M17.1613 0H1.83871C1.35105 0 0.883371 0.193721 0.538546 0.538546C0.193721 0.883371 0 1.35105 0 1.83871V4.90323C0 6.6913 0.710309 8.40614 1.97467 9.6705C3.23903 10.9349 4.95386 11.6452 6.74194 11.6452H12.2581C14.0461 11.6452 15.761 10.9349 17.0253 9.6705C18.2897 8.40614 19 6.6913 19 4.90323V1.83871C19 1.35105 18.8063 0.883371 18.4615 0.538546C18.1166 0.193721 17.6489 0 17.1613 0Z" fill="#6688CF"/>
<path id="Vector_3" d="M17.1613 0H1.83871C1.35105 0 0.883371 0.193721 0.538546 0.538546C0.193721 0.883371 0 1.35105 0 1.83871V3.06452C0 2.57686 0.193721 2.10918 0.538546 1.76435C0.883371 1.41953 1.35105 1.22581 1.83871 1.22581H17.1613C17.6489 1.22581 18.1166 1.41953 18.4615 1.76435C18.8063 2.10918 19 2.57686 19 3.06452V1.83871C19 1.35105 18.8063 0.883371 18.4615 0.538546C18.1166 0.193721 17.6489 0 17.1613 0Z" fill="#739AE8"/>
<path id="Vector_4" d="M17.1613 17.7743H1.83871C1.35105 17.7743 0.883371 17.5805 0.538546 17.2357C0.193721 16.8909 0 16.4232 0 15.9355V17.1614C0 17.649 0.193721 18.1167 0.538546 18.4615C0.883371 18.8063 1.35105 19.0001 1.83871 19.0001H17.1613C17.6489 19.0001 18.1166 18.8063 18.4615 18.4615C18.8063 18.1167 19 17.649 19 17.1614V15.9355C19 16.4232 18.8063 16.8909 18.4615 17.2357C18.1166 17.5805 17.6489 17.7743 17.1613 17.7743Z" fill="#4462A3"/>
<path id="Vector_5" d="M11.9517 17.7744H8.88721V19.0002H11.9517V17.7744Z" fill="#AEB2D4"/>
<path id="Vector_6" d="M12.871 6.12897H16.242V3.06445H12.5646C11.5893 3.06445 10.6539 3.45189 9.96425 4.14154C9.2746 4.83119 8.88716 5.76656 8.88716 6.74187V8.58058H6.43555V11.6451H8.88716V17.7741H11.9517V11.6451H15.6291L16.242 8.58058H11.9517V7.04832C11.9517 6.8045 12.0485 6.57065 12.2209 6.39824C12.3934 6.22583 12.6272 6.12897 12.871 6.12897Z" fill="#FDFEF9"/>
<path id="Vector_7" d="M8.88716 11.645H6.43555V12.5644H8.88716V11.645Z" fill="#4462A3"/>
<path id="Vector_8" d="M11.9517 11.6452V12.5645H15.6291L16.242 9.5H16.0581L15.6291 11.6452H11.9517Z" fill="#4462A3"/>
<path id="Vector_9" d="M11.9517 7.04826V7.96762C11.9517 7.72379 12.0485 7.48995 12.2209 7.31753C12.3933 7.14512 12.6272 7.04826 12.871 7.04826H16.242V6.12891H12.871C12.6272 6.12891 12.3933 6.22577 12.2209 6.39818C12.0485 6.57059 11.9517 6.80443 11.9517 7.04826Z" fill="#4462A3"/>
</g>
</svg>
