<svg width="20" height="20" viewBox="0 0 20 20" fill="none" xmlns="http://www.w3.org/2000/svg">
<g id="_x37__stroke">
<g id="Twitter">
<path id="Twitter_1_" fill-rule="evenodd" clip-rule="evenodd" d="M20 3.63947C19.2652 3.97416 18.4739 4.20041 17.6439 4.3015C18.4914 3.7815 19.1419 2.95682 19.4483 1.97463C18.6547 2.45619 17.7778 2.8065 16.841 2.99432C16.0944 2.17697 15.0273 1.6665 13.8463 1.6665C11.5818 1.6665 9.74469 3.55041 9.74469 5.87385C9.74469 6.20369 9.77985 6.52385 9.85031 6.83213C6.44037 6.65619 3.4176 4.98291 1.39248 2.43447C1.0392 3.05807 0.837174 3.7815 0.837174 4.55197C0.837174 6.01104 1.56154 7.299 2.66261 8.05385C1.99122 8.03338 1.35717 7.84197 0.803112 7.529V7.58072C0.803112 9.61994 2.21762 11.3209 4.09587 11.7062C3.75197 11.8049 3.38917 11.8543 3.01464 11.8543C2.75058 11.8543 2.4923 11.829 2.24215 11.7796C2.76449 13.4506 4.27884 14.6676 6.0749 14.7001C4.67086 15.8293 2.90074 16.5021 0.979047 16.5021C0.647959 16.5021 0.320464 16.4829 0 16.4443C1.81607 17.636 3.97369 18.3331 6.28974 18.3331C13.8379 18.3331 17.9641 11.9228 17.9641 6.36244C17.9641 6.17947 17.9605 5.9965 17.9535 5.81713C18.7556 5.22369 19.4517 4.48338 20 3.63947Z" fill="#00AAEC"/>
</g>
</g>
</svg>
