<svg width="50" height="50" viewBox="0 0 50 50" fill="none" xmlns="http://www.w3.org/2000/svg">
<g id="Untitled-1-10_icon-icons.com_75126" clip-path="url(#clip0_1352_1173)">
<g id="Group">
<path id="Vector" d="M44.2859 8.29508V8.27515C44.2859 5.22006 41.802 2.72949 38.7402 2.72949H6.12379C3.06869 2.72949 0.578125 5.21342 0.578125 8.27515V29.2025C0.578125 32.0584 2.7499 34.4161 5.52605 34.715V34.7349C5.52605 37.79 8.00997 40.2806 11.0717 40.2806H34.131C34.4498 40.2806 34.7487 40.4068 34.9679 40.6259L40.9386 46.5967C41.2574 46.9155 41.6824 47.0881 42.1141 47.0881C42.3267 47.0881 42.5458 47.0483 42.7517 46.9619C43.376 46.7029 43.7811 46.0986 43.7811 45.4211V40.2806C46.7964 40.2275 49.2272 37.7635 49.2272 34.7349V13.8075C49.2272 10.9517 47.062 8.59394 44.2859 8.29508ZM5.52605 13.8075L10.5842 32.3767C8.72455 32.0911 16.8106 24.905 9.96153 26.7729L13.0747 11.2069C13.0747 10.4161 17.4332 16.8107 18.6785 16.8107L36.7351 18.056C38.1176 18.056 38.7402 7.92552 38.7402 8.71634L11.0717 8.26187C8.01662 8.26187 5.52605 10.7458 5.52605 13.8075ZM47.5668 34.7283C47.5668 36.8668 45.8267 38.6136 43.6815 38.6136C42.8181 38.6136 42.1208 39.3176 42.1208 40.1743V45.4078H42.1141L45.4521 10.3465C44.9141 9.80858 34.8948 38.6136 34.1377 38.6136L19.9238 14.9428C17.7852 14.9428 7.18643 36.8735 7.18643 34.7283V13.8075C7.18643 11.669 5.04122 35.4899 7.18643 35.4899L27.3955 38.6136L47.2455 38.9836C49.384 38.9836 47.5734 11.6623 47.5734 13.8075V34.7283H47.5668Z" fill="white"/>
</g>
</g>
<defs>
<clipPath id="clip0_1352_1173">
<rect width="49.8113" height="49.8113" fill="white"/>
</clipPath>
</defs>
</svg>
