<svg width="51" height="50" viewBox="0 0 51 50" fill="none" xmlns="http://www.w3.org/2000/svg">
<g id="3643770-favorite-heart-like-likes-love-loved_113432">
<g id="Layer 54">
<path id="Vector" d="M25.4346 44.7052C24.8189 44.7067 24.209 44.5864 23.64 44.3514C23.071 44.1163 22.5541 43.771 22.119 43.3354L6.08598 27.3024C4.81943 26.022 3.82033 24.5025 3.14688 22.8322C2.47342 21.1619 2.13908 19.3744 2.16334 17.5736C2.17554 15.9233 2.5132 14.2917 3.15697 12.7722C3.80074 11.2526 4.73797 9.87499 5.91499 8.71822C7.092 7.56145 8.48566 6.64826 10.0162 6.03094C11.5466 5.41363 13.1839 5.10433 14.8341 5.12075C16.5138 5.10383 18.1799 5.42441 19.7334 6.06347C21.287 6.70253 22.6963 7.64706 23.878 8.84104L25.4346 10.3976L26.711 9.12123C28.915 6.85881 31.8642 5.47179 35.0125 5.21707C38.1607 4.96235 41.2946 5.85719 43.8336 7.73585C45.279 8.8489 46.4706 10.2571 47.3291 11.8667C48.1877 13.4763 48.6934 15.2503 48.8127 17.0707C48.932 18.891 48.6621 20.7159 48.021 22.4238C47.3798 24.1316 46.3822 25.6833 45.0945 26.9755L28.7501 43.3354C28.3151 43.771 27.7982 44.1163 27.2291 44.3514C26.6601 44.5864 26.0502 44.7067 25.4346 44.7052ZM13.6056 21.1689C11.1314 21.1664 23.462 16.9587 21.6832 18.6784C20.7763 19.5509 18.4563 23.7466 17.9641 24.9048C17.4719 26.063 6.7552 22.401 6.75652 23.6595C6.74288 25.0438 5.52418 20.3934 6.04523 21.676C6.56628 22.9586 28.8191 24.5448 29.7943 25.5274L27.9263 39.2255C28.071 39.3714 26.4914 34.788 26.6811 34.8671C26.8707 34.9461 24.2145 17.5482 24.8131 35.4897C25.0186 35.4897 25.3432 33.5395 26.0584 36.735C26.2481 36.656 23.7333 38.7488 23.878 38.6029L16.7188 23.5918C17.6791 22.6112 33.0553 21.2114 33.5301 19.9237C29.7943 23.6595 26.6811 15.5652 26.711 14.9425C29.1716 14.9425 29.7943 15.5652 28.549 18.0557C30.4169 18.0557 34.0109 24.4979 32.9075 23.6595C30.9713 22.2319 35.9271 19.7203 33.5301 19.9237C32.9075 16.8105 43.2925 21.9262 41.6245 23.6595L37.266 24.2822C37.1213 24.4281 35.961 36.3939 29.7094 26.1501C29.5197 26.2291 25.6401 27.3024 25.4346 27.3024C25.2291 27.3024 20.4318 38.8844 22.3226 25.5274C17.9413 38.4645 13.7503 28.7865 13.6056 28.6406L9.24709 16.1878C7.42447 14.381 19.2852 19.9323 16.7188 19.9237L13.6056 21.1689Z" fill="#D92938"/>
</g>
</g>
</svg>
