<svg width="46" height="196" viewBox="0 0 46 196" fill="none" xmlns="http://www.w3.org/2000/svg">
<g id="Group 111">
<g id="04-facebook">
<path id="Vector" d="M40.8197 0H4.37353C1.9581 0 0 2.00245 0 4.4726V41.7443C0 44.2144 1.9581 46.2169 4.37353 46.2169H40.8197C43.2351 46.2169 45.1932 44.2144 45.1932 41.7443V4.4726C45.1932 2.00245 43.2351 0 40.8197 0Z" fill="#5B79B8"/>
<path id="Vector_2" d="M40.8197 0H4.37353C3.2136 0 2.10118 0.471219 1.28098 1.30999C0.460782 2.14877 0 3.28639 0 4.4726V11.9269C0 16.2764 1.68953 20.4476 4.69692 23.5232C7.70431 26.5987 11.7832 28.3265 16.0363 28.3265H29.1569C33.41 28.3265 37.4889 26.5987 40.4963 23.5232C43.5037 20.4476 45.1932 16.2764 45.1932 11.9269V4.4726C45.1932 3.28639 44.7324 2.14877 43.9122 1.30999C43.092 0.471219 41.9796 0 40.8197 0Z" fill="#6688CF"/>
<path id="Vector_3" d="M40.8197 0H4.37353C3.2136 0 2.10118 0.471219 1.28098 1.30999C0.460782 2.14877 0 3.28639 0 4.4726V7.45433C0 6.26813 0.460782 5.1305 1.28098 4.29173C2.10118 3.45295 3.2136 2.98173 4.37353 2.98173H40.8197C41.9796 2.98173 43.092 3.45295 43.9122 4.29173C44.7324 5.1305 45.1932 6.26813 45.1932 7.45433V4.4726C45.1932 3.28639 44.7324 2.14877 43.9122 1.30999C43.092 0.471219 41.9796 0 40.8197 0Z" fill="#739AE8"/>
<path id="Vector_4" d="M40.8197 43.2333H4.37353C3.2136 43.2333 2.10118 42.7621 1.28098 41.9233C0.460782 41.0846 0 39.9469 0 38.7607V41.7425C0 42.9287 0.460782 44.0663 1.28098 44.9051C2.10118 45.7439 3.2136 46.2151 4.37353 46.2151H40.8197C41.9796 46.2151 43.092 45.7439 43.9122 44.9051C44.7324 44.0663 45.1932 42.9287 45.1932 41.7425V38.7607C45.1932 39.9469 44.7324 41.0846 43.9122 41.9233C43.092 42.7621 41.9796 43.2333 40.8197 43.2333Z" fill="#4462A3"/>
<path id="Vector_5" d="M28.4279 43.2363H21.1387V46.2181H28.4279V43.2363Z" fill="#AEB2D4"/>
<path id="Vector_6" d="M30.6121 14.9104H38.6302V7.45605H29.8831C27.5633 7.45605 25.3384 8.39849 23.698 10.076C22.0576 11.7536 21.1361 14.0288 21.1361 16.4013V20.8739H15.3047V28.3282H21.1361V43.2368H28.4253V28.3282H37.1724L38.6302 20.8739H28.4253V17.1467C28.4253 16.5536 28.6557 15.9848 29.0658 15.5654C29.4759 15.146 30.0321 14.9104 30.6121 14.9104Z" fill="#1E1E1E"/>
<path id="Vector_7" d="M21.1361 28.3291H15.3047V30.5654H21.1361V28.3291Z" fill="#4462A3"/>
<path id="Vector_8" d="M28.4277 28.3264V30.5627H37.1748L38.6326 23.1084H38.1953L37.1748 28.3264H28.4277Z" fill="#4462A3"/>
<path id="Vector_9" d="M28.4277 17.1435V19.3798C28.4277 18.7867 28.6581 18.2179 29.0682 17.7985C29.4783 17.3791 30.0345 17.1435 30.6145 17.1435H38.6326V14.9072H30.6145C30.0345 14.9072 29.4783 15.1428 29.0682 15.5622C28.6581 15.9816 28.4277 16.5504 28.4277 17.1435Z" fill="#4462A3"/>
</g>
<g id="_x37__stroke">
<g id="Twitter">
<path id="Twitter_1_" fill-rule="evenodd" clip-rule="evenodd" d="M45.1932 80.7204C43.5327 81.4938 41.7448 82.0166 39.8693 82.2502C41.7843 81.0486 43.2541 79.1428 43.9465 76.8732C42.1533 77.986 40.1719 78.7955 38.0549 79.2295C36.3679 77.3407 33.9565 76.1611 31.288 76.1611C26.171 76.1611 22.0197 80.5145 22.0197 85.8836C22.0197 86.6459 22.0991 87.3857 22.2584 88.0981C14.553 87.6915 7.72262 83.8248 3.14653 77.9358C2.34824 79.3768 1.89173 81.0486 1.89173 82.829C1.89173 86.2007 3.52854 89.177 6.0166 90.9213C4.49948 90.874 3.06673 90.4317 1.81476 89.7084V89.828C1.81476 94.5403 5.01107 98.4709 9.25528 99.3613C8.47818 99.5895 7.65836 99.7036 6.81206 99.7036C6.21538 99.7036 5.63176 99.6451 5.0665 99.531C6.2468 103.392 9.66872 106.205 13.7272 106.28C10.5546 108.889 6.55468 110.444 2.21231 110.444C1.46417 110.444 0.724139 110.4 0 110.31C4.10369 113.064 8.97918 114.675 14.2127 114.675C31.269 114.675 40.5927 99.8617 40.5927 87.0127C40.5927 86.5899 40.5846 86.1671 40.5687 85.7526C42.3814 84.3812 43.9543 82.6705 45.1932 80.7204Z" fill="#00AAEC"/>
</g>
</g>
<g id="Group 10">
<path id="Vector_10" fill-rule="evenodd" clip-rule="evenodd" d="M45.1932 161.337C45.1932 154.957 40.1338 149.783 33.8949 149.783C26.9939 149.783 18.1993 149.783 11.2983 149.783C5.05938 149.783 0 154.957 0 161.337C0 168.395 0 177.389 0 184.446C0 190.826 5.05938 196 11.2983 196C18.1993 196 26.9939 196 33.8949 196C40.1338 196 45.1932 190.826 45.1932 184.446C45.1932 177.389 45.1932 168.395 45.1932 161.337Z" fill="url(#paint0_radial_1352_1078)"/>
<path id="Vector_11" d="M29.2816 156.726C34.0065 156.772 38.3563 160.92 38.4038 166.055C38.4196 170.612 38.4196 175.169 38.4038 179.726C38.3586 184.539 34.3025 189.006 29.2816 189.055C24.8255 189.071 20.3695 189.071 15.9134 189.055C11.1862 189.008 6.83861 184.861 6.79116 179.726C6.77534 175.169 6.77534 170.612 6.79116 166.055C6.83409 161.218 10.8811 156.775 15.9134 156.726C20.3695 156.71 24.8255 156.71 29.2816 156.726ZM15.9744 158.91C12.307 158.921 8.96269 162.173 8.92654 166.069C8.91298 170.616 8.91298 175.164 8.92654 179.712C8.96043 183.421 12.0629 186.834 15.927 186.871C20.374 186.885 24.821 186.885 29.268 186.871C32.9038 186.836 36.2323 183.663 36.2684 179.712C36.282 175.164 36.282 170.616 36.2684 166.069C36.2345 162.334 33.071 158.947 29.268 158.91C24.8368 158.896 20.4056 158.91 15.9744 158.91Z" fill="#1E1E1E"/>
<path id="Vector_12" d="M22.6533 164.802C26.3094 164.836 29.717 167.72 30.3858 171.415C30.8626 174.05 29.9633 176.906 28.0651 178.759C25.9524 180.816 22.6826 181.551 19.8807 180.502C16.7488 179.33 14.5456 175.954 14.6925 172.534C14.871 168.448 18.4006 164.816 22.599 164.802C22.6171 164.802 22.6352 164.802 22.6533 164.802ZM22.5629 166.99C19.953 167.016 17.4922 169.04 16.9499 171.67C16.4008 174.329 17.8967 177.28 20.3529 178.341C23.0351 179.501 26.4992 178.2 27.794 175.492C29.134 172.693 27.8708 168.892 25.0417 167.54C24.2712 167.173 23.4148 166.988 22.5629 166.99Z" fill="#1E1E1E"/>
<path id="Vector_13" fill-rule="evenodd" clip-rule="evenodd" d="M32.7645 164.174C32.7645 163.728 32.5905 163.301 32.2832 162.986C31.9759 162.672 31.5578 162.494 31.1217 162.494C31.0878 162.494 31.0517 162.494 31.0178 162.494C30.5817 162.494 30.1636 162.672 29.8563 162.986C29.549 163.301 29.375 163.728 29.375 164.174C29.375 164.193 29.375 164.209 29.375 164.227C29.375 164.687 29.5535 165.129 29.8721 165.452C30.1885 165.778 30.6201 165.96 31.0697 165.96C32.0052 165.96 32.7645 165.184 32.7645 164.227C32.7645 164.209 32.7645 164.193 32.7645 164.174Z" fill="#1E1E1E"/>
</g>
</g>
<defs>
<radialGradient id="paint0_radial_1352_1078" cx="0" cy="0" r="1" gradientUnits="userSpaceOnUse" gradientTransform="translate(0 194.845) scale(63.1191 64.5488)">
<stop stop-color="#FF8100"/>
<stop offset="0.19" stop-color="#FF7209"/>
<stop offset="0.32" stop-color="#F55E16"/>
<stop offset="0.48" stop-color="#D92938"/>
<stop offset="1" stop-color="#9100FF"/>
</radialGradient>
</defs>
</svg>
