<svg width="20" height="20" viewBox="0 0 20 20" fill="none" xmlns="http://www.w3.org/2000/svg">
<g id="Group 10">
<path id="Vector" fill-rule="evenodd" clip-rule="evenodd" d="M20 5C20 2.239 17.761 0 15 0C11.946 0 8.054 0 5 0C2.239 0 0 2.239 0 5C0 8.054 0 11.946 0 15C0 17.761 2.239 20 5 20C8.054 20 11.946 20 15 20C17.761 20 20 17.761 20 15C20 11.946 20 8.054 20 5Z" fill="url(#paint0_radial_157_49)"/>
<path id="Vector_2" d="M12.9583 3.00525C15.0492 3.02525 16.9743 4.82025 16.9953 7.04225C17.0023 9.01425 17.0023 10.9862 16.9953 12.9583C16.9753 15.0413 15.1803 16.9743 12.9583 16.9953C10.9862 17.0023 9.01425 17.0023 7.04225 16.9953C4.95025 16.9753 3.02625 15.1803 3.00525 12.9583C2.99825 10.9862 2.99825 9.01425 3.00525 7.04225C3.02425 4.94925 4.81525 3.02625 7.04225 3.00525C9.01425 2.99825 10.9862 2.99825 12.9583 3.00525ZM7.06925 3.95025C5.44625 3.95525 3.96625 5.36225 3.95025 7.04825C3.94425 9.01625 3.94425 10.9842 3.95025 12.9522C3.96525 14.5572 5.33825 16.0342 7.04825 16.0502C9.01625 16.0562 10.9842 16.0562 12.9522 16.0502C14.5612 16.0352 16.0342 14.6622 16.0502 12.9522C16.0562 10.9842 16.0562 9.01625 16.0502 7.04825C16.0352 5.43225 14.6352 3.96625 12.9522 3.95025C10.9912 3.94425 9.03025 3.95025 7.06925 3.95025Z" fill="white"/>
<path id="Vector_3" d="M10.0241 6.5C11.6421 6.515 13.1501 7.763 13.4461 9.362C13.6571 10.502 13.2591 11.738 12.4191 12.54C11.4841 13.43 10.0371 13.748 8.79711 13.294C7.41111 12.787 6.43611 11.326 6.50111 9.846C6.58011 8.078 8.14211 6.506 10.0001 6.5C10.0081 6.5 10.0161 6.5 10.0241 6.5ZM9.98411 7.447C8.82911 7.458 7.74011 8.334 7.50011 9.472C7.25711 10.623 7.91911 11.9 9.00611 12.359C10.1931 12.861 11.7261 12.298 12.2991 11.126C12.8921 9.915 12.3331 8.27 11.0811 7.685C10.7401 7.526 10.3611 7.446 9.98411 7.447Z" fill="white"/>
<path id="Vector_4" fill-rule="evenodd" clip-rule="evenodd" d="M14.5 6.227C14.5 6.034 14.423 5.849 14.287 5.713C14.151 5.577 13.966 5.5 13.773 5.5C13.758 5.5 13.742 5.5 13.727 5.5C13.534 5.5 13.349 5.577 13.213 5.713C13.077 5.849 13 6.034 13 6.227C13 6.235 13 6.242 13 6.25C13 6.449 13.079 6.64 13.22 6.78C13.36 6.921 13.551 7 13.75 7C14.164 7 14.5 6.664 14.5 6.25C14.5 6.242 14.5 6.235 14.5 6.227Z" fill="white"/>
</g>
<defs>
<radialGradient id="paint0_radial_157_49" cx="0" cy="0" r="1" gradientUnits="userSpaceOnUse" gradientTransform="translate(0 19.5) scale(27.933)">
<stop stop-color="#FF8100"/>
<stop offset="0.19" stop-color="#FF7209"/>
<stop offset="0.32" stop-color="#F55E16"/>
<stop offset="0.48" stop-color="#D92938"/>
<stop offset="1" stop-color="#9100FF"/>
</radialGradient>
</defs>
</svg>
