<svg width="50" height="50" viewBox="0 0 50 50" fill="none" xmlns="http://www.w3.org/2000/svg">
<g id="phonecall2_83997" clip-path="url(#clip0_1352_1183)">
<g id="Group">
<path id="Vector" d="M40.0907 49.8113C38.0183 49.8113 35.5152 49.2919 32.7626 48.2531C26.7278 45.9779 20.1619 41.4812 14.2745 35.5938C8.38548 29.7048 3.88871 23.1372 1.61184 17.1024C-0.457282 11.6155 -0.462308 7.11201 1.60011 5.05126C1.89666 4.75472 2.19823 4.43639 2.50985 4.10801C4.39133 2.12937 6.51741 -0.0972409 9.33543 0.00328314C11.2772 0.0837023 13.1587 1.28999 15.0854 3.68749C20.7784 10.7677 18.2117 13.2909 15.2412 16.2161L14.7168 16.7355C14.2309 17.2214 13.3128 19.4714 21.854 28.0126C24.6419 30.8005 27.0193 32.8411 28.9192 34.0759C30.1154 34.8533 32.2549 36.0294 33.1328 35.1515L33.6606 34.6187C36.5825 31.6549 39.1056 29.0966 46.1808 34.7846C48.5783 36.7113 49.7829 38.5911 49.8634 40.5362C49.979 43.3526 47.7356 45.4837 45.7553 47.3635C45.4286 47.6751 45.1102 47.9767 44.8137 48.2716C43.79 49.2969 42.1532 49.8113 40.0907 49.8113ZM6.9057 11.2075C4.90359 11.2075 10.7344 7.65585 9.13438 9.33962C8.81271 9.67805 6.66829 18.0472 5.03777 13.6981C3.50143 15.2328 8.34953 5.87536 10.1255 10.5849C12.3202 16.4019 13.6337 26.0299 19.3585 31.7547C25.0817 37.4762 29.7285 37.656 35.5472 39.8491C40.2568 41.6283 37.1274 43.25 38.6604 41.717C38.967 41.4104 42.6805 40.1691 43.0189 39.8491C44.7395 38.2139 38.7459 43.7727 38.6604 41.717C38.6018 40.3046 40.6307 43.3002 38.6604 41.717C32.7647 36.9756 42.825 35.2083 40.0907 37.9811L36.9925 40.6016C35.6857 41.9101 29.7119 41.0995 26.8302 39.2264C24.8315 37.9263 22.2268 34.6247 19.3585 31.7547C12.2699 24.6678 4.68747 17.1667 6.9057 14.9434L5.03777 7.4717C7.81726 4.73745 13.8774 20.2198 9.13438 14.3208C7.54778 12.3522 8.31806 17.1627 6.9057 17.1024C6.86214 17.1007 5.92229 18.2492 6.9057 11.2075Z" fill="white"/>
</g>
</g>
<defs>
<clipPath id="clip0_1352_1183">
<rect width="49.8113" height="49.8113" fill="white" transform="translate(0.0566406)"/>
</clipPath>
</defs>
</svg>
