<svg width="12" height="12" viewBox="0 0 12 12" fill="none" xmlns="http://www.w3.org/2000/svg" class="text-white text-lg font-normal font-Satoshi">
  <!-- Fully filled star -->
  <path d="M1.5 2.46076L5.20799 4.6993L4.224 0.48127L7.5 -2.35674e-05L3.18651 -0.365494L1.5 -4.34249e-05L-0.186508 4.27777L3.08905 7.48127L2.10506 11.6993L5.81305 9.46076Z" fill="#FFD700"/>
  
  <!-- Half filled star -->
  <path d="M3.5 2.46076L7.20799 4.6993L6.224 0.48127L9.5 -2.35674e-05L5.18651 -0.365494L3.5 -4.34249e-05L1.81349 4.27777L4.08905 7.48127L3.10506 11.6993L6.81305 9.46076Z" fill="#FFD700"/>
  
  <!-- Empty star -->
  <path d="M5.5 2.46076L9.20799 4.6993L8.224 0.48127L11.5 -2.35674e-05L7.18651 -0.365494L5.5 -4.34249e-05L3.81349 4.27777L6.08905 7.48127L5.10506 11.6993L8.81305 9.46076Z" fill="#CCCCCC"/>
</svg>
